# xmcd CD database file
#
# Track frame offsets:
#	150
#	13261
#	27569
#	40640
#	54851
#	67003
#	79989
#	93495
#	106128
#	120975
#	133697
#	145523
#	157151
#	170476
#	182489
#	196711
#	210712
#	223618
#	236200
#	249222
#	262232
#	275569
#	287756
#	301200
#	314197
#
# Disc length: 4364 seconds
#
# Revision: 0
# Processed by: cddbd v1.5.2PL0 Copyright (c) Steve Scherf et al.
# Submitted via: CDex 1.51
#
DISCID=71110a19
DTITLE=Big Maceo - Chicago Breakdown
DYEAR=2000
DGENRE=Blues
TTITLE0=Worried Life Blues
TTITLE1=Ramblin' Mind Blues
TTITLE2=County Jail Blues
TTITLE3=Can't You Read
TTITLE4=So Long Baby
TTITLE5=Texas Blues
TTITLE6=Tuff Luck Blues
TTITLE7=I Got The Blues
TTITLE8=Poor Kelly Blues
TTITLE9=Some Sweet Day
TTITLE10=Kid Man Blues
TTITLE11=I'm So Worried
TTITLE12=Things Have Changed
TTITLE13=My Own Troubles
TTITLE14=Maceo's 32-20
TTITLE15=Come On Home
TTITLE16=Texas Stomp
TTITLE17=Detroit Stomp
TTITLE18=Winter time Blues
TTITLE19=Won't Be A Fool No More
TTITLE20=Chicago Breakdown
TTITLE21=Broke And Country Blues
TTITLE22=If You Ever Change Your Ways
TTITLE23=It's All Over Noq
TTITLE24=I Lost My Little Woman
EXTD=YEAR: 2000
EXTT0=
EXTT1=
EXTT2=
EXTT3=
EXTT4=
EXTT5=
EXTT6=
EXTT7=
EXTT8=
EXTT9=
EXTT10=
EXTT11=
EXTT12=
EXTT13=
EXTT14=
EXTT15=
EXTT16=
EXTT17=
EXTT18=
EXTT19=
EXTT20=
EXTT21=
EXTT22=
EXTT23=
EXTT24=
PLAYORDER=
